<svg xmlns="http://www.w3.org/2000/svg" viewBox="0 0 580.54 907.89"><defs><style>.cls-1{fill:#3d64af;}</style></defs><g id="Layer_2" data-name="Layer 2"><g id="الطريق"><path class="cls-1" d="M579.05,228.63a266.26,266.26,0,0,0-18.76-53.15,283.25,283.25,0,0,0-29.44-48,230.28,230.28,0,0,0-29.34-32.13A224,224,0,0,0,467.71,70C456.09,62.83,443.8,57.46,431,52.78a164,164,0,0,0-33.79-8.54c-24.7-3.45-50.54-.79-74.33,6.54a179.83,179.83,0,0,0-62.33,34.08c-19.34,16.23-36,35.85-47.22,58.56-13.51,27.39-19,57.62-19.89,87.92-1,33.16,3.43,66,9.88,98.5a710.24,710.24,0,0,0,63,180.87q4.74,9.27,9.79,18.39c5.16,9.29,10.44,19,18.59,26.13A19.75,19.75,0,0,0,304,561a8.52,8.52,0,0,0,8,.42l3.61-3.53a25.16,25.16,0,0,0,2.14-13.83l-1.42-9.38a99.21,99.21,0,0,0-7.65-21.39,614.43,614.43,0,0,1-29-59.66l4.62,11a621.32,621.32,0,0,1-23.46-66.14l3,10.41a597.72,597.72,0,0,1-17.12-77l1.42,9.37c-3-19.94-4.76-40.09-4.19-60.26l-.23,7.89A207,207,0,0,1,253,232.25l-1.91,5.95a166.79,166.79,0,0,1,42.23-67.34l-3.62,3.54a180.17,180.17,0,0,1,75.43-44.06,168.83,168.83,0,0,1,24.49-5.12l-5,.66a160.07,160.07,0,0,1,75.55,8.69l-5.86-2.17a178.84,178.84,0,0,1,43.66,23.65l-6.35-4.69a184.47,184.47,0,0,1,24.52,21.78l-6.49-6.91a183.9,183.9,0,0,1,14.81,18l-6.31-8.82a176.6,176.6,0,0,1,10.45,16.47l-5.78-10.41a168.7,168.7,0,0,1,8,16.39l-4.62-11a164.67,164.67,0,0,1,5.91,16.61l-3-10.41c.83,2.83,1.57,5.68,2.25,8.55a105,105,0,0,0,13.43,31.8,58.49,58.49,0,0,0,9.56,12.27,35.5,35.5,0,0,0,9.6,8.15L569.7,256a8,8,0,0,0,8.63-4.2l1.91-6a48.51,48.51,0,0,0-1.19-17.26Z"/><path class="cls-1" d="M357.76,430.63a334.79,334.79,0,0,1,15,36.75L369.19,457a341.32,341.32,0,0,1,13.38,53.74l-1.92-11.78a342.73,342.73,0,0,1,4.43,53.72l0-11.94a335.6,335.6,0,0,1-4.37,54.46l1.78-10.87a306.28,306.28,0,0,1-14,53.86l3.39-9.37A287.86,287.86,0,0,1,343.66,686l4.77-7.42a246.27,246.27,0,0,1-47.64,54.68l5.94-5a202.61,202.61,0,0,1-68.87,38.39l6.9-2.17a201.41,201.41,0,0,1-68.09,9.19,191.42,191.42,0,0,1-19.41-1.75l7.16,1a172.07,172.07,0,0,1-63.16-21.8l6.69,4a145.58,145.58,0,0,1-33.21-26.87l5.92,6.53a142.82,142.82,0,0,1-18.21-25.4L67.33,718a155.6,155.6,0,0,1-11.49-25.86l3.55,10.43a160.52,160.52,0,0,1-6.23-25.11l1.92,11.78a159,159,0,0,1-2-24.45l0,11.93A150.26,150.26,0,0,1,55,652.47l-1.79,10.87a138.36,138.36,0,0,1,6.18-23.89L56,648.81a124.86,124.86,0,0,1,12.17-24.7l-4.77,7.41a116,116,0,0,1,15.66-19.28,30.84,30.84,0,0,0,6.47-12.1A43.52,43.52,0,0,0,89,584.59a56.36,56.36,0,0,0-1-17.82,51.25,51.25,0,0,0-4.5-16.32l-4.88-8.68A28,28,0,0,0,66,531.27l-7.16-1A19.15,19.15,0,0,0,46,537.44a114.87,114.87,0,0,0-12.61,14.81,175.21,175.21,0,0,0-14.35,23.36A193.88,193.88,0,0,0,8.67,602.19,135.21,135.21,0,0,0,4.05,620.9C2.35,630.74.69,640.52.28,650.5a249.64,249.64,0,0,0,.4,30.58,225.73,225.73,0,0,0,11.45,54.61,198.58,198.58,0,0,0,9.12,23.17,224.1,224.1,0,0,0,14.12,25,138.62,138.62,0,0,0,11.88,15.63A194.64,194.64,0,0,0,67,819.54a151.22,151.22,0,0,0,17.24,12.63A217,217,0,0,0,109,845.93a172.92,172.92,0,0,0,40.53,12.78c30.57,5.71,61.62,5.67,91.84-2.06a229,229,0,0,0,46.74-17.1,206.9,206.9,0,0,0,38.09-25.12c13.95-11.52,27-23.78,38.41-37.83a314.5,314.5,0,0,0,30.76-45.93c9.18-16.54,16.16-33.87,22.55-51.64a305.65,305.65,0,0,0,12.55-45.84c7.33-38.34,9.68-77.43,5.95-116.35A417.6,417.6,0,0,0,409,403.13q-4.28-10.8-9.3-21.28a32.09,32.09,0,0,0-7.84-11.94,20.6,20.6,0,0,0-9.65-7.24c-7.22-2.48-15.26.31-20,6.18-6.21,7.67-9.42,17.9-10,27.64-.63,11.44.5,23.69,5.51,34.14Z"/><path class="cls-1" d="M482.39,26.92A390.78,390.78,0,0,0,439,17.52a356.92,356.92,0,0,0-43.7-4.37c-29.07-1.06-58.17,1.91-85.22,11.11a166.46,166.46,0,0,0-19.79,8,180.76,180.76,0,0,0-18.71,10.28,197.69,197.69,0,0,0-17.35,12.53l-4.11,3.46c-1.38,1.14-2.65,2.42-4,3.6-2.71,2.36-5.19,5-7.77,7.48-20.19,20.67-35.81,45.9-49.1,72.62,7.47-28.88,20.67-56.89,40.4-80.48a181.71,181.71,0,0,1,16-16.63,178,178,0,0,1,18.17-14.39A180.84,180.84,0,0,1,283.81,19a172.73,172.73,0,0,1,21.45-8.89,197.7,197.7,0,0,1,22.35-6A202.91,202.91,0,0,1,350.43.82a232.48,232.48,0,0,1,45.7.67,266.09,266.09,0,0,1,44.43,8.91c7.23,2.13,14.37,4.49,21.36,7.24A184.8,184.8,0,0,1,482.39,26.92Z"/><path class="cls-1" d="M385.47,794.11a229.66,229.66,0,0,1-16.85,21.3c-6,6.81-12.36,13.3-18.91,19.62a306.78,306.78,0,0,1-42.79,34.16,254,254,0,0,1-49.06,25.37,211.17,211.17,0,0,1-26.65,8.23,198,198,0,0,1-27.66,4.44,190.84,190.84,0,0,1-28.09.26,185.32,185.32,0,0,1-27.75-4.29c-2.26-.58-4.56-1.06-6.8-1.73l-6.72-2c-4.41-1.5-8.84-3-13.13-4.81-4.34-1.68-8.52-3.72-12.74-5.66-4.09-2.18-8.26-4.21-12.21-6.63a219.17,219.17,0,0,1-23-15.37c-3.57-2.88-7.26-5.61-10.66-8.68l-5.17-4.51-5-4.7a286.16,286.16,0,0,1-35.51-41.18c12.93,12.63,26.14,24.8,40.29,35.63l5.28,4.08,5.42,3.87c3.56,2.65,7.31,5,11,7.47a247.89,247.89,0,0,0,22.91,13.08c3.86,2.07,7.91,3.74,11.87,5.58,4.06,1.61,8,3.37,12.18,4.73,4.07,1.54,8.26,2.69,12.39,4l6.29,1.63c2.09.56,4.23.93,6.34,1.4a175.69,175.69,0,0,0,51.51,3A206.21,206.21,0,0,0,253,881.31a284.85,284.85,0,0,0,47.76-22.07A386.43,386.43,0,0,0,345,829.51,424.7,424.7,0,0,0,385.47,794.11Z"/></g></g></svg>